<?xml version="1.0" encoding="UTF-8"?>
<svg width="332px" height="128px" viewBox="0 0 332 128" version="1.1" xmlns="http://www.w3.org/2000/svg" xmlns:xlink="http://www.w3.org/1999/xlink">
    <!-- Generator: Sketch 54.1 (76490) - https://sketchapp.com -->
    <title>logo</title>
    <desc>Created with Sketch.</desc>
    <defs>
        <filter x="-6.3%" y="-17.7%" width="112.7%" height="136.3%" filterUnits="objectBoundingBox" id="filter-1">
            <feOffset dx="2" dy="2" in="SourceAlpha" result="shadowOffsetOuter1"></feOffset>
            <feGaussianBlur stdDeviation="4" in="shadowOffsetOuter1" result="shadowBlurOuter1"></feGaussianBlur>
            <feColorMatrix values="0 0 0 0 0   0 0 0 0 0   0 0 0 0 0  0 0 0 0.518028846 0" type="matrix" in="shadowBlurOuter1" result="shadowMatrixOuter1"></feColorMatrix>
            <feMerge>
                <feMergeNode in="shadowMatrixOuter1"></feMergeNode>
                <feMergeNode in="SourceGraphic"></feMergeNode>
            </feMerge>
        </filter>
    </defs>
    <g id="Homepage" stroke="none" stroke-width="1" fill="none" fill-rule="evenodd">
        <g id="district-hovers" transform="translate(-556.000000, -21.000000)">
            <g id="header">
                <g id="logo" filter="url(#filter-1)" transform="translate(562.000000, 27.000000)">
                    <polygon id="Fill-1" fill="#FEFEFE" points="123.030978 44.2514246 127 44.2514246 127 50 112 50 112 44.2514246 116.020652 44.2514246 116.020652 19.7469975 112 19.7469975 112 14 127 14 127 19.7469975 123.030978 19.7469975"></polygon>
                    <polygon id="Stroke-2" stroke="#FEFEFE" stroke-width="0.958" points="123.030978 44.2514246 127 44.2514246 127 50 112 50 112 44.2514246 116.020652 44.2514246 116.020652 19.7469975 112 19.7469975 112 14 127 14 127 19.7469975 123.030978 19.7469975"></polygon>
                    <polygon id="Fill-3" fill="#FEFEFE" points="167.113295 50 160.704418 50 143.748847 26.3008811 143.748847 44.2511726 147.68451 44.2511726 147.68451 50 133 50 133 44.2511726 136.885125 44.2511726 136.885125 19.7472494 133 19.7472494 133 14 143.093429 14 160.249574 38.099943 160.249574 19.7472494 156.31391 19.7472494 156.31391 14 171 14 171 19.7472494 167.113295 19.7472494"></polygon>
                    <polygon id="Stroke-4" stroke="#FEFEFE" stroke-width="0.958" points="167.113295 50 160.704418 50 143.748847 26.3008811 143.748847 44.2511726 147.68451 44.2511726 147.68451 50 133 50 133 44.2511726 136.885125 44.2511726 136.885125 19.7472494 133 19.7472494 133 14 143.093429 14 160.249574 38.099943 160.249574 19.7472494 156.31391 19.7472494 156.31391 14 171 14 171 19.7472494 167.113295 19.7472494"></polygon>
                    <g id="Group-51">
                        <path d="M186.152927,43.3843397 L191.528072,43.3843397 C194.942758,43.3843397 197.907813,42.9345863 200.269166,40.2407507 C202.228052,37.9951068 203.180768,34.7016 203.180768,31.807874 C203.180768,28.6143123 202.276788,25.1224767 200.067932,22.7768877 C197.60439,20.2829425 194.942758,19.9331342 191.627116,19.9331342 L186.152927,19.9331342 L186.152927,43.3843397 Z M175.402639,43.8340932 L179.32041,43.8340932 L179.32041,19.583326 L175.402639,19.583326 L175.402639,13.8958192 L192.43048,13.8958192 C197.453465,13.8958192 201.3225,14.9436822 204.93842,18.5854356 C208.404987,22.0772712 210.013286,26.8683945 210.013286,31.807874 C210.013286,36.3491342 208.456868,40.8404219 205.391196,44.2323123 C201.825584,48.2254356 197.60439,49.5216 192.331435,49.5216 L175.402639,49.5216 L175.402639,43.8340932 Z" id="Fill-5" fill="#FEFEFE"></path>
                        <path d="M186.152927,43.3843397 L191.528072,43.3843397 C194.942758,43.3843397 197.907813,42.9345863 200.269166,40.2407507 C202.228052,37.9951068 203.180768,34.7016 203.180768,31.807874 C203.180768,28.6143123 202.276788,25.1224767 200.067932,22.7768877 C197.60439,20.2829425 194.942758,19.9331342 191.627116,19.9331342 L186.152927,19.9331342 L186.152927,43.3843397 Z M175.402639,43.8340932 L179.32041,43.8340932 L179.32041,19.583326 L175.402639,19.583326 L175.402639,13.8958192 L192.43048,13.8958192 C197.453465,13.8958192 201.3225,14.9436822 204.93842,18.5854356 C208.404987,22.0772712 210.013286,26.8683945 210.013286,31.807874 C210.013286,36.3491342 208.456868,40.8404219 205.391196,44.2323123 C201.825584,48.2254356 197.60439,49.5216 192.331435,49.5216 L175.402639,49.5216 L175.402639,43.8340932 Z" id="Stroke-7" stroke="#FEFEFE" stroke-width="0.958"></path>
                        <path d="M220.207194,38.9434932 C220.207194,41.8871918 222.216388,44.3826986 225.53203,44.3826986 C228.495512,44.3826986 230.806557,42.5368356 230.806557,39.4931918 C230.806557,35.9498219 227.442179,35.0518767 224.678358,34.2538767 C222.067035,33.5058493 219.855035,32.8562055 217.644607,31.2086712 C215.083592,29.3128356 213.726836,26.619 213.726836,23.4254384 C213.726836,17.5380411 218.800129,13.1466986 224.577741,13.1466986 C227.039711,13.1466986 229.449801,13.9446986 230.957483,15.8905068 L230.957483,13.894726 L236.181701,13.894726 L236.181701,23.475411 L230.053502,23.475411 C230.001622,20.8299863 228.042736,18.8357671 225.381104,18.8357671 C222.719473,18.8357671 220.507473,20.4817397 220.507473,23.2755205 C220.507473,26.7689178 223.623453,27.5169452 226.385701,28.3149452 C229.14795,29.0645342 231.760846,29.8125616 234.070318,31.5584795 C236.382935,33.4059041 237.639075,36.0497671 237.639075,39.0434384 C237.639075,45.4805342 232.815751,50.2201233 226.285085,50.2201233 C223.522836,50.2201233 221.111174,49.2722055 219.403831,47.1764795 L219.403831,49.5220685 L213.978378,49.5220685 L213.978378,38.9434932 L220.207194,38.9434932 Z" id="Fill-9" fill="#FEFEFE"></path>
                        <path d="M220.207194,38.9434932 C220.207194,41.8871918 222.216388,44.3826986 225.53203,44.3826986 C228.495512,44.3826986 230.806557,42.5368356 230.806557,39.4931918 C230.806557,35.9498219 227.442179,35.0518767 224.678358,34.2538767 C222.067035,33.5058493 219.855035,32.8562055 217.644607,31.2086712 C215.083592,29.3128356 213.726836,26.619 213.726836,23.4254384 C213.726836,17.5380411 218.800129,13.1466986 224.577741,13.1466986 C227.039711,13.1466986 229.449801,13.9446986 230.957483,15.8905068 L230.957483,13.894726 L236.181701,13.894726 L236.181701,23.475411 L230.053502,23.475411 C230.001622,20.8299863 228.042736,18.8357671 225.381104,18.8357671 C222.719473,18.8357671 220.507473,20.4817397 220.507473,23.2755205 C220.507473,26.7689178 223.623453,27.5169452 226.385701,28.3149452 C229.14795,29.0645342 231.760846,29.8125616 234.070318,31.5584795 C236.382935,33.4059041 237.639075,36.0497671 237.639075,39.0434384 C237.639075,45.4805342 232.815751,50.2201233 226.285085,50.2201233 C223.522836,50.2201233 221.111174,49.2722055 219.403831,47.1764795 L219.403831,49.5220685 L213.978378,49.5220685 L213.978378,38.9434932 L220.207194,38.9434932 Z" id="Stroke-11" stroke="#FEFEFE" stroke-width="0.958"></path>
                        <path d="M271.693341,31.4593151 C271.693341,25.0721918 266.420386,19.7829041 259.990336,19.7829041 C253.458098,19.7829041 248.134834,24.9722466 248.134834,31.5092877 C248.134834,38.0963014 253.256864,43.4839726 259.888147,43.4839726 C266.569739,43.4839726 271.693341,38.0447671 271.693341,31.4593151 M241.101083,31.7091781 C241.101083,21.2305479 249.590635,12.9975616 260.039073,12.9975616 C270.235968,12.9975616 278.727093,21.2789589 278.727093,31.4093425 C278.727093,41.838 270.386894,50.2708767 259.888147,50.2708767 C249.540326,50.2708767 241.101083,41.9879178 241.101083,31.7091781" id="Fill-13" fill="#FEFEFE"></path>
                        <path d="M271.693341,31.4593151 C271.693341,25.0721918 266.420386,19.7829041 259.990336,19.7829041 C253.458098,19.7829041 248.134834,24.9722466 248.134834,31.5092877 C248.134834,38.0963014 253.256864,43.4839726 259.888147,43.4839726 C266.569739,43.4839726 271.693341,38.0447671 271.693341,31.4593151 Z M241.101083,31.7091781 C241.101083,21.2305479 249.590635,12.9975616 260.039073,12.9975616 C270.235968,12.9975616 278.727093,21.2789589 278.727093,31.4093425 C278.727093,41.838 270.386894,50.2708767 259.888147,50.2708767 C249.540326,50.2708767 241.101083,41.9879178 241.101083,31.7091781 Z" id="Stroke-15" stroke="#FEFEFE" stroke-width="0.958"></path>
                        <path d="M296.053797,32.8563616 C298.163608,32.8563616 300.22311,32.7564164 302.032643,31.4087178 C303.639369,30.1609644 304.493041,28.2666904 304.493041,26.2693479 C304.493041,24.3735123 303.688105,22.4277041 302.131688,21.2299233 C300.625578,19.9821699 298.968543,19.9821699 297.058394,19.9821699 L292.33726,19.9821699 L292.33726,32.8563616 L296.053797,32.8563616 Z M285.504742,19.582389 L281.63728,19.582389 L281.63728,13.8948822 L297.660523,13.8948822 C301.177399,13.8948822 304.241499,14.2446904 307.055628,16.6402521 C309.868185,19.0342521 311.325558,22.3777315 311.325558,26.0210466 C311.325558,31.1604164 307.858991,36.2997863 302.433538,36.7479781 L308.008344,43.8331562 L312.077041,43.8331562 L312.077041,49.5222247 L303.688105,49.5222247 L292.33726,33.5060055 L292.33726,43.8331562 L295.401359,43.8331562 L295.401359,49.5222247 L281.63728,49.5222247 L281.63728,43.8331562 L285.504742,43.8331562 L285.504742,19.582389 Z" id="Fill-17" fill="#FEFEFE"></path>
                        <path d="M296.053797,32.8563616 C298.163608,32.8563616 300.22311,32.7564164 302.032643,31.4087178 C303.639369,30.1609644 304.493041,28.2666904 304.493041,26.2693479 C304.493041,24.3735123 303.688105,22.4277041 302.131688,21.2299233 C300.625578,19.9821699 298.968543,19.9821699 297.058394,19.9821699 L292.33726,19.9821699 L292.33726,32.8563616 L296.053797,32.8563616 Z M285.504742,19.582389 L281.63728,19.582389 L281.63728,13.8948822 L297.660523,13.8948822 C301.177399,13.8948822 304.241499,14.2446904 307.055628,16.6402521 C309.868185,19.0342521 311.325558,22.3777315 311.325558,26.0210466 C311.325558,31.1604164 307.858991,36.2997863 302.433538,36.7479781 L308.008344,43.8331562 L312.077041,43.8331562 L312.077041,49.5222247 L303.688105,49.5222247 L292.33726,33.5060055 L292.33726,43.8331562 L295.401359,43.8331562 L295.401359,49.5222247 L281.63728,49.5222247 L281.63728,43.8331562 L285.504742,43.8331562 L285.504742,19.582389 Z" id="Stroke-19" stroke="#FEFEFE" stroke-width="0.958"></path>
                        <path d="M109.508149,65.1108658 C110.306796,65.1108658 111.036269,65.0874411 111.671413,64.5689753 C112.282975,64.070811 112.58797,63.3493315 112.58797,62.6028658 C112.58797,61.812674 112.188647,61.0677699 111.52992,60.6383178 C110.849184,60.1635781 110.143294,60.1401534 109.366657,60.1401534 L107.604289,60.1401534 L107.604289,65.1108658 L109.508149,65.1108658 Z M109.2739,57.340126 C110.778438,57.340126 112.493642,57.5212767 113.740348,58.4020438 C115.150557,59.3952493 115.809284,60.9319068 115.809284,62.6028658 C115.809284,64.0270849 115.244886,65.4044548 114.186836,66.3976603 C112.963711,67.5954411 111.600667,67.8890301 109.907473,67.8890301 L107.604289,67.8890301 L107.604289,70.8936329 L109.437403,70.8936329 L109.437403,73.4687836 L102.597025,73.4687836 L102.597025,70.8936329 L104.406557,70.8936329 L104.406557,59.9152767 L102.597025,59.9152767 L102.597025,57.340126 L109.2739,57.340126 Z" id="Fill-21" fill="#FEFEFE"></path>
                        <path d="M133.229059,57.340126 L133.229059,59.9152767 L131.419526,59.9152767 L131.419526,67.9124548 C131.419526,69.5834137 131.136541,70.9154959 129.889835,72.1585644 C128.691865,73.3563452 127.116581,73.7857973 125.446969,73.7857973 C123.826094,73.7857973 122.321556,73.4234959 121.122014,72.2944274 C119.758969,71.0060712 119.452402,69.5834137 119.452402,67.8218795 L119.452402,59.9152767 L117.641298,59.9152767 L117.641298,57.340126 L124.178253,57.340126 L124.178253,59.9152767 L122.650133,59.9152767 L122.650133,67.5048658 C122.650133,68.2731945 122.673715,69.086811 123.143785,69.7645644 C123.661019,70.5094685 124.530412,70.8936329 125.446969,70.8936329 C126.29278,70.8936329 127.069417,70.5781808 127.610233,69.9222904 C128.174631,69.222674 128.221795,68.3403452 128.221795,67.5048658 L128.221795,59.9152767 L126.693676,59.9152767 L126.693676,57.340126 L133.229059,57.340126 Z" id="Fill-23" fill="#FEFEFE"></path>
                        <path d="M140.046641,63.7780027 L141.669089,63.7780027 C142.444153,63.7780027 143.173626,63.8232904 143.832352,63.3719753 C144.349586,63.009674 144.583835,62.4443589 144.583835,61.8353178 C144.583835,61.1794274 144.302422,60.5922493 143.714442,60.2315096 C143.126462,59.8707699 142.373407,59.9144959 141.692671,59.9144959 L140.046641,59.9144959 L140.046641,63.7780027 Z M140.023059,70.7804137 L141.786999,70.7804137 C142.538482,70.7804137 143.455039,70.8038384 144.113765,70.3743863 C144.725327,69.9902219 145.055477,69.2890438 145.055477,68.6128521 C145.055477,67.889811 144.772492,67.2339205 144.137347,66.7826055 C143.455039,66.3078658 142.63281,66.3078658 141.810581,66.3078658 L140.023059,66.3078658 L140.023059,70.7804137 Z M135.015795,70.8944137 L136.8269,70.8944137 L136.8269,59.9144959 L135.015795,59.9144959 L135.015795,57.3393452 L142.469307,57.3393452 C143.714442,57.3393452 144.935994,57.4533452 145.948452,58.1763863 C147.028511,58.9665781 147.523735,60.0956466 147.523735,61.3840027 C147.523735,62.8519479 146.747099,64.1840301 145.33689,64.8180575 C147.193586,65.539537 148.251636,67.0543315 148.251636,68.9735918 C148.251636,70.2603863 147.687238,71.5487425 146.676352,72.3842219 C145.547556,73.3337014 144.255258,73.4695644 142.821467,73.4695644 L135.015795,73.4695644 L135.015795,70.8944137 Z" id="Fill-25" fill="#FEFEFE"></path>
                        <polygon id="Fill-27" fill="#FEFEFE" points="150.062898 70.8939452 151.896012 70.8939452 151.896012 59.915589 150.062898 59.915589 150.062898 57.3404384 156.904848 57.3404384 156.904848 59.915589 155.093743 59.915589 155.093743 70.7127945 159.113703 70.7127945 159.113703 68.5889589 162.311435 68.5889589 162.311435 73.4690959 150.062898 73.4690959"></polygon>
                        <polygon id="Fill-29" fill="#FEFEFE" points="169.668575 70.8939452 171.478107 70.8939452 171.478107 73.4690959 164.637729 73.4690959 164.637729 70.8939452 166.470844 70.8939452 166.470844 59.915589 164.637729 59.915589 164.637729 57.3404384 171.478107 57.3404384 171.478107 59.915589 169.668575 59.915589"></polygon>
                        <path d="M186.877526,62.4223397 C185.935815,60.8872438 184.055536,59.9596274 182.246004,59.9596274 C179.071855,59.9596274 176.745089,62.2646137 176.745089,65.2910795 C176.745089,68.1832438 179.166183,70.6006685 182.19884,70.6006685 C184.126283,70.6006685 185.890223,69.7183397 186.923118,68.1598192 L190.380253,68.1598192 C189.275039,71.458011 185.819477,73.7848603 182.222422,73.7848603 C179.966402,73.7848603 177.661646,72.8369425 176.06278,71.3002849 C174.41675,69.6964767 173.523775,67.5289151 173.523775,65.2692164 C173.523775,60.7513808 177.333069,56.9112986 182.104511,56.9112986 C184.055536,56.9112986 185.935815,57.5422027 187.300432,58.8992712 L187.300432,57.2720384 L189.932193,57.2720384 L189.932193,62.4223397 L186.877526,62.4223397 Z" id="Fill-31" fill="#FEFEFE"></path>
                        <path d="M203.358892,68.6795342 C203.358892,70.0131781 204.299031,71.1422466 205.850732,71.1422466 C207.237359,71.1422466 208.317419,70.3067671 208.317419,68.9278356 C208.317419,67.3240274 206.743707,66.918 205.449837,66.5572603 C204.228285,66.2168219 203.193817,65.9232329 202.159349,65.1783288 C200.961379,64.3194247 200.324663,63.0997808 200.324663,61.6536986 C200.324663,58.9879726 202.700165,57 205.404245,57 C206.555051,57 207.683847,57.3623014 208.388165,58.2430685 L208.388165,57.3404384 L210.834414,57.3404384 L210.834414,61.6771233 L207.966832,61.6771233 C207.94325,60.4809041 207.02512,59.5767123 205.779986,59.5767123 C204.53328,59.5767123 203.498812,60.3216164 203.498812,61.5865479 C203.498812,63.1684932 204.957757,63.5058082 206.250056,63.8681096 C207.542354,64.2069863 208.763906,64.545863 209.84711,65.3360548 C210.92717,66.1730959 211.51515,67.3693151 211.51515,68.7248219 C211.51515,71.6388493 209.25913,73.7861096 206.202892,73.7861096 C204.909021,73.7861096 203.781797,73.3566575 202.98315,72.4071781 L202.98315,73.4690959 L200.444145,73.4690959 L200.444145,68.6795342 L203.358892,68.6795342 Z" id="Fill-33" fill="#FEFEFE"></path>
                        <path d="M226.844295,62.4223397 C225.902583,60.8872438 224.022304,59.9596274 222.212772,59.9596274 C219.038623,59.9596274 216.711857,62.2646137 216.711857,65.2910795 C216.711857,68.1832438 219.132951,70.6006685 222.165608,70.6006685 C224.093051,70.6006685 225.856991,69.7183397 226.889887,68.1598192 L230.347021,68.1598192 C229.241807,71.458011 225.786245,73.7848603 222.18919,73.7848603 C219.93317,73.7848603 217.628414,72.8369425 216.029548,71.3002849 C214.383518,69.6964767 213.490543,67.5289151 213.490543,65.2692164 C213.490543,60.7513808 217.299837,56.9112986 222.07128,56.9112986 C224.022304,56.9112986 225.902583,57.5422027 227.2672,58.8992712 L227.2672,57.2720384 L229.898961,57.2720384 L229.898961,62.4223397 L226.844295,62.4223397 Z" id="Fill-35" fill="#FEFEFE"></path>
                        <polygon id="Fill-37" fill="#FEFEFE" points="243.843051 59.9151205 242.033518 59.9151205 242.033518 57.3399699 248.850314 57.3399699 248.850314 59.9151205 247.03921 59.9151205 247.03921 70.8934767 248.850314 70.8934767 248.850314 73.4686274 242.033518 73.4686274 242.033518 70.8934767 243.843051 70.8934767 243.843051 66.8722438 237.378414 66.8722438 237.378414 70.8934767 239.187946 70.8934767 239.187946 73.4686274 232.347568 73.4686274 232.347568 70.8934767 234.180683 70.8934767 234.180683 59.9151205 232.347568 59.9151205 232.347568 57.3399699 239.187946 57.3399699 239.187946 59.9151205 237.378414 59.9151205 237.378414 63.8004904 243.843051 63.8004904"></polygon>
                        <path d="M264.95641,65.2917041 C264.95641,62.3995397 262.488151,60.0055397 259.479077,60.0055397 C256.421266,60.0055397 253.929425,62.3558137 253.929425,65.3135671 C253.929425,68.2963068 256.328509,70.7355945 259.43034,70.7355945 C262.558898,70.7355945 264.95641,68.2728822 264.95641,65.2917041 M250.638937,65.4041425 C250.638937,60.6614301 254.611733,56.9337863 259.501087,56.9337863 C264.272529,56.9337863 268.246898,60.6832932 268.246898,65.2682795 C268.246898,69.9906904 264.343276,73.8073479 259.43034,73.8073479 C254.588151,73.8073479 250.638937,70.0578411 250.638937,65.4041425" id="Fill-39" fill="#FEFEFE"></path>
                        <path d="M284.23351,65.2917041 C284.23351,62.3995397 281.765252,60.0055397 278.756177,60.0055397 C275.698366,60.0055397 273.206525,62.3558137 273.206525,65.3135671 C273.206525,68.2963068 275.60561,70.7355945 278.707441,70.7355945 C281.835998,70.7355945 284.23351,68.2728822 284.23351,65.2917041 M269.916038,65.4041425 C269.916038,60.6614301 273.888834,56.9337863 278.778187,56.9337863 C283.54963,56.9337863 287.523998,60.6832932 287.523998,65.2682795 C287.523998,69.9906904 283.620376,73.8073479 278.707441,73.8073479 C273.865252,73.8073479 269.916038,70.0578411 269.916038,65.4041425" id="Fill-41" fill="#FEFEFE"></path>
                        <polygon id="Fill-43" fill="#FEFEFE" points="289.241717 70.8939452 291.074832 70.8939452 291.074832 59.915589 289.241717 59.915589 289.241717 57.3404384 296.083668 57.3404384 296.083668 59.915589 294.272563 59.915589 294.272563 70.7127945 298.292523 70.7127945 298.292523 68.5889589 301.490255 68.5889589 301.490255 73.4690959 289.241717 73.4690959"></polygon>
                        <path d="M307.743439,68.6795342 C307.743439,70.0131781 308.683578,71.1422466 310.23528,71.1422466 C311.621906,71.1422466 312.701966,70.3067671 312.701966,68.9278356 C312.701966,67.3240274 311.128255,66.918 309.834384,66.5572603 C308.612832,66.2168219 307.578364,65.9232329 306.543897,65.1783288 C305.345926,64.3194247 304.70921,63.0997808 304.70921,61.6536986 C304.70921,58.9879726 307.084712,57 309.788792,57 C310.939598,57 312.068394,57.3623014 312.772712,58.2430685 L312.772712,57.3404384 L315.218961,57.3404384 L315.218961,61.6771233 L312.351379,61.6771233 C312.327797,60.4809041 311.409668,59.5767123 310.164533,59.5767123 C308.917827,59.5767123 307.883359,60.3216164 307.883359,61.5865479 C307.883359,63.1684932 309.342304,63.5058082 310.634603,63.8681096 C311.926901,64.2069863 313.148454,64.545863 314.231658,65.3360548 C315.311717,66.1730959 315.899698,67.3693151 315.899698,68.7248219 C315.899698,71.6388493 313.643678,73.7861096 310.587439,73.7861096 C309.293568,73.7861096 308.166344,73.3566575 307.367698,72.4071781 L307.367698,73.4690959 L304.828693,73.4690959 L304.828693,68.6795342 L307.743439,68.6795342 Z" id="Fill-45" fill="#FEFEFE"></path>
                        <path d="M0.758714428,37.0334466 C0.758714428,37.0334466 6.15272438,31.1179397 13.3248239,25.9129808 C19.8161871,21.203063 29.4455403,16.9475836 29.4455403,16.9475836 L29.6420577,47.9352822 C29.6420577,47.9352822 27.7303363,48.2788438 27.0841871,50.772789 C26.4364657,53.2667342 26.9552716,56.3572274 27.9127045,58.7496658 C28.8701373,61.1421041 35.6507741,81.6824055 35.6507741,81.6824055 C35.6507741,81.6824055 40.5794308,55.2796932 40.5369831,54.6128712 C40.4945353,53.947611 41.1988537,52.3406795 41.1611224,49.2220767 C41.123391,46.1019123 38.255809,44.051474 38.255809,44.051474 L38.1158886,13.950789 L63.378595,5.89895342 L64.1175005,35.2937753 C64.1175005,35.2937753 61.7813015,36.5540219 61.5533413,40.583063 C61.3269532,44.6121041 69.009998,66.6562685 69.009998,66.6562685 C69.009998,66.6562685 76.6458786,42.3133644 76.6081473,39.1947616 C76.5704159,36.0745973 73.5283264,33.8117753 73.5283264,33.8117753 L72.8648836,3.07550137 C72.8648836,3.07550137 81.6185552,1.41078904 88.8252418,0.736158904 C96.0303562,0.0615287671 104.793461,1.07503562 104.793461,1.07503562 L104.923948,28.499063 C104.923948,28.499063 103.042098,29.2861315 101.418078,31.6176658 C99.7940577,33.9492 86.5519284,87.9227342 86.5519284,87.9227342 C86.5519284,87.9227342 81.2758289,87.8555836 74.8960876,88.0882685 C69.1640677,88.2990904 60.4921473,89.3594466 60.4921473,89.3594466 L52.1802468,65.4803507 L48.8944756,94.9032822 C48.2294607,95.0906795 41.8748736,96.8506521 36.3205055,100.761008 C30.7692816,104.668241 24.0782567,112.517063 24.0782567,112.517063 C24.0782567,112.517063 10.4949731,73.6680493 8.38673433,70.9008164 C6.27849552,68.1351452 1.43630647,67.991474 1.43630647,67.991474 L0.758714428,37.0334466 Z" id="Fill-47" fill="#FEFEFE"></path>
                        <path d="M0.758714428,37.0334466 C0.758714428,37.0334466 6.15272438,31.1179397 13.3248239,25.9129808 C19.8161871,21.203063 29.4455403,16.9475836 29.4455403,16.9475836 L29.6420577,47.9352822 C29.6420577,47.9352822 27.7303363,48.2788438 27.0841871,50.772789 C26.4364657,53.2667342 26.9552716,56.3572274 27.9127045,58.7496658 C28.8701373,61.1421041 35.6507741,81.6824055 35.6507741,81.6824055 C35.6507741,81.6824055 40.5794308,55.2796932 40.5369831,54.6128712 C40.4945353,53.947611 41.1988537,52.3406795 41.1611224,49.2220767 C41.123391,46.1019123 38.255809,44.051474 38.255809,44.051474 L38.1158886,13.950789 L63.378595,5.89895342 L64.1175005,35.2937753 C64.1175005,35.2937753 61.7813015,36.5540219 61.5533413,40.583063 C61.3269532,44.6121041 69.009998,66.6562685 69.009998,66.6562685 C69.009998,66.6562685 76.6458786,42.3133644 76.6081473,39.1947616 C76.5704159,36.0745973 73.5283264,33.8117753 73.5283264,33.8117753 L72.8648836,3.07550137 C72.8648836,3.07550137 81.6185552,1.41078904 88.8252418,0.736158904 C96.0303562,0.0615287671 104.793461,1.07503562 104.793461,1.07503562 L104.923948,28.499063 C104.923948,28.499063 103.042098,29.2861315 101.418078,31.6176658 C99.7940577,33.9492 86.5519284,87.9227342 86.5519284,87.9227342 C86.5519284,87.9227342 81.2758289,87.8555836 74.8960876,88.0882685 C69.1640677,88.2990904 60.4921473,89.3594466 60.4921473,89.3594466 L52.1802468,65.4803507 L48.8944756,94.9032822 C48.2294607,95.0906795 41.8748736,96.8506521 36.3205055,100.761008 C30.7692816,104.668241 24.0782567,112.517063 24.0782567,112.517063 C24.0782567,112.517063 10.4949731,73.6680493 8.38673433,70.9008164 C6.27849552,68.1351452 1.43630647,67.991474 1.43630647,67.991474 L0.758714428,37.0334466 Z" id="Stroke-49" stroke="#FEFEFE" stroke-width="0.958"></path>
                    </g>
                </g>
            </g>
        </g>
    </g>
</svg>